<mxfile host="app.diagrams.net" modified="2023-06-17T14:54:08.401Z" agent="Mozilla/5.0 (Windows NT 10.0; Win64; x64) AppleWebKit/537.36 (KHTML, like Gecko) Chrome/114.0.0.0 Safari/537.36" etag="eBcYfRGYArVEunLqEcmK" version="21.4.0" type="device">
  <diagram name="Sayfa -1" id="AbGTwwZAWqydFgjPUQwz">
    <mxGraphModel dx="3124" dy="1674" grid="1" gridSize="10" guides="1" tooltips="1" connect="1" arrows="1" fold="1" page="1" pageScale="1" pageWidth="4681" pageHeight="3300" math="0" shadow="0">
      <root>
        <mxCell id="0" />
        <mxCell id="1" parent="0" />
        <mxCell id="2ZFmd8-YQH3pPk2A6SJL-160" value="" style="rounded=1;whiteSpace=wrap;html=1;fillColor=none;strokeWidth=11;strokeColor=#007FFF;" vertex="1" parent="1">
          <mxGeometry x="1450" y="200" width="1860" height="2540" as="geometry" />
        </mxCell>
        <mxCell id="2ZFmd8-YQH3pPk2A6SJL-240" style="edgeStyle=orthogonalEdgeStyle;rounded=0;orthogonalLoop=1;jettySize=auto;html=1;entryX=0.948;entryY=0.583;entryDx=0;entryDy=0;entryPerimeter=0;fillColor=#e1d5e7;strokeColor=#9673a6;strokeWidth=7;" edge="1" parent="1" source="2ZFmd8-YQH3pPk2A6SJL-199" target="2ZFmd8-YQH3pPk2A6SJL-234">
          <mxGeometry relative="1" as="geometry">
            <Array as="points">
              <mxPoint x="1820" y="2285" />
              <mxPoint x="1820" y="2285" />
            </Array>
          </mxGeometry>
        </mxCell>
        <mxCell id="2ZFmd8-YQH3pPk2A6SJL-199" value="" style="rounded=0;whiteSpace=wrap;html=1;fillColor=none;strokeWidth=8;" vertex="1" parent="1">
          <mxGeometry x="1530" y="1940" width="240" height="380" as="geometry" />
        </mxCell>
        <mxCell id="2ZFmd8-YQH3pPk2A6SJL-185" style="edgeStyle=orthogonalEdgeStyle;rounded=0;orthogonalLoop=1;jettySize=auto;html=1;strokeWidth=9;strokeColor=#99FFCC;" edge="1" parent="1" source="2ZFmd8-YQH3pPk2A6SJL-183">
          <mxGeometry relative="1" as="geometry">
            <mxPoint x="1530" y="2044" as="targetPoint" />
          </mxGeometry>
        </mxCell>
        <mxCell id="2ZFmd8-YQH3pPk2A6SJL-183" value="" style="rounded=0;whiteSpace=wrap;html=1;fillColor=none;strokeWidth=10;" vertex="1" parent="1">
          <mxGeometry x="300" y="1810" width="630" height="470" as="geometry" />
        </mxCell>
        <mxCell id="2ZFmd8-YQH3pPk2A6SJL-229" style="edgeStyle=orthogonalEdgeStyle;rounded=0;orthogonalLoop=1;jettySize=auto;html=1;entryX=0.002;entryY=0.382;entryDx=0;entryDy=0;entryPerimeter=0;strokeWidth=9;strokeColor=#B9E0A5;" edge="1" parent="1" source="2ZFmd8-YQH3pPk2A6SJL-165" target="2ZFmd8-YQH3pPk2A6SJL-192">
          <mxGeometry relative="1" as="geometry" />
        </mxCell>
        <mxCell id="2ZFmd8-YQH3pPk2A6SJL-165" value="" style="rounded=0;whiteSpace=wrap;html=1;fillColor=none;strokeWidth=10;" vertex="1" parent="1">
          <mxGeometry x="305" y="620" width="820" height="510" as="geometry" />
        </mxCell>
        <mxCell id="2ZFmd8-YQH3pPk2A6SJL-77" value="" style="rounded=0;whiteSpace=wrap;html=1;fillColor=none;strokeWidth=10;" vertex="1" parent="1">
          <mxGeometry x="2080" y="410" width="1040" height="630" as="geometry" />
        </mxCell>
        <mxCell id="2ZFmd8-YQH3pPk2A6SJL-78" value="" style="rounded=0;whiteSpace=wrap;html=1;fillColor=none;strokeWidth=9;strokeColor=#3399FF;" vertex="1" parent="1">
          <mxGeometry x="2160" y="880" width="430" height="80" as="geometry" />
        </mxCell>
        <mxCell id="2ZFmd8-YQH3pPk2A6SJL-80" value="" style="rounded=0;whiteSpace=wrap;html=1;fillColor=none;strokeWidth=9;strokeColor=#3399FF;" vertex="1" parent="1">
          <mxGeometry x="2160" y="770" width="880" height="80" as="geometry" />
        </mxCell>
        <mxCell id="2ZFmd8-YQH3pPk2A6SJL-81" value="" style="rounded=0;whiteSpace=wrap;html=1;fillColor=none;strokeWidth=9;strokeColor=#3399FF;" vertex="1" parent="1">
          <mxGeometry x="2610" y="880" width="430" height="80" as="geometry" />
        </mxCell>
        <mxCell id="2ZFmd8-YQH3pPk2A6SJL-82" value="" style="rounded=1;whiteSpace=wrap;html=1;fillColor=none;strokeWidth=5;strokeColor=#D5E8D4;" vertex="1" parent="1">
          <mxGeometry x="2160" y="440" width="400" height="280" as="geometry" />
        </mxCell>
        <mxCell id="2ZFmd8-YQH3pPk2A6SJL-84" value="" style="rounded=1;whiteSpace=wrap;html=1;fillColor=none;strokeWidth=5;strokeColor=#D5E8D4;" vertex="1" parent="1">
          <mxGeometry x="2635" y="440" width="400" height="280" as="geometry" />
        </mxCell>
        <mxCell id="2ZFmd8-YQH3pPk2A6SJL-85" value="" style="sketch=0;html=1;dashed=0;whitespace=wrap;fillColor=#2875E2;strokeColor=#ffffff;points=[[0.005,0.63,0],[0.1,0.2,0],[0.9,0.2,0],[0.5,0,0],[0.995,0.63,0],[0.72,0.99,0],[0.5,1,0],[0.28,0.99,0]];verticalLabelPosition=bottom;align=center;verticalAlign=top;shape=mxgraph.kubernetes.icon;prIcon=k_proxy" vertex="1" parent="1">
          <mxGeometry x="2955" y="876" width="80" height="88" as="geometry" />
        </mxCell>
        <mxCell id="2ZFmd8-YQH3pPk2A6SJL-86" value="" style="sketch=0;html=1;dashed=0;whitespace=wrap;fillColor=#2875E2;strokeColor=#ffffff;points=[[0.005,0.63,0],[0.1,0.2,0],[0.9,0.2,0],[0.5,0,0],[0.995,0.63,0],[0.72,0.99,0],[0.5,1,0],[0.28,0.99,0]];verticalLabelPosition=bottom;align=center;verticalAlign=top;shape=mxgraph.kubernetes.icon;prIcon=kubelet" vertex="1" parent="1">
          <mxGeometry x="2500" y="880" width="80" height="80" as="geometry" />
        </mxCell>
        <mxCell id="2ZFmd8-YQH3pPk2A6SJL-87" value="" style="image;sketch=0;aspect=fixed;html=1;points=[];align=center;fontSize=12;image=img/lib/mscae/Docker.svg;" vertex="1" parent="1">
          <mxGeometry x="2790" y="770" width="97.56" height="80" as="geometry" />
        </mxCell>
        <mxCell id="2ZFmd8-YQH3pPk2A6SJL-94" value="" style="shape=cube;whiteSpace=wrap;html=1;boundedLbl=1;backgroundOutline=1;darkOpacity=0.05;darkOpacity2=0.1;fillColor=none;strokeWidth=3;strokeColor=#E5CCFF;" vertex="1" parent="1">
          <mxGeometry x="2210" y="480" width="190" height="120" as="geometry" />
        </mxCell>
        <mxCell id="2ZFmd8-YQH3pPk2A6SJL-95" value="" style="shape=cube;whiteSpace=wrap;html=1;boundedLbl=1;backgroundOutline=1;darkOpacity=0.05;darkOpacity2=0.1;fillColor=none;strokeWidth=3;strokeColor=#E5CCFF;" vertex="1" parent="1">
          <mxGeometry x="2380" y="610" width="149" height="90" as="geometry" />
        </mxCell>
        <mxCell id="2ZFmd8-YQH3pPk2A6SJL-96" value="" style="shape=cube;whiteSpace=wrap;html=1;boundedLbl=1;backgroundOutline=1;darkOpacity=0.05;darkOpacity2=0.1;fillColor=none;strokeWidth=3;strokeColor=#E5CCFF;" vertex="1" parent="1">
          <mxGeometry x="2680" y="480" width="149" height="90" as="geometry" />
        </mxCell>
        <mxCell id="2ZFmd8-YQH3pPk2A6SJL-97" value="" style="shape=cube;whiteSpace=wrap;html=1;boundedLbl=1;backgroundOutline=1;darkOpacity=0.05;darkOpacity2=0.1;fillColor=none;strokeWidth=3;strokeColor=#E5CCFF;" vertex="1" parent="1">
          <mxGeometry x="2680" y="600" width="149" height="90" as="geometry" />
        </mxCell>
        <mxCell id="2ZFmd8-YQH3pPk2A6SJL-98" value="" style="shape=cube;whiteSpace=wrap;html=1;boundedLbl=1;backgroundOutline=1;darkOpacity=0.05;darkOpacity2=0.1;fillColor=none;strokeWidth=3;strokeColor=#E5CCFF;" vertex="1" parent="1">
          <mxGeometry x="2860" y="480" width="149" height="90" as="geometry" />
        </mxCell>
        <mxCell id="2ZFmd8-YQH3pPk2A6SJL-99" value="" style="shape=cube;whiteSpace=wrap;html=1;boundedLbl=1;backgroundOutline=1;darkOpacity=0.05;darkOpacity2=0.1;fillColor=none;strokeWidth=3;strokeColor=#E5CCFF;" vertex="1" parent="1">
          <mxGeometry x="2860" y="600" width="149" height="90" as="geometry" />
        </mxCell>
        <mxCell id="2ZFmd8-YQH3pPk2A6SJL-100" value="&lt;font color=&quot;#007fff&quot; style=&quot;font-size: 58px;&quot;&gt;DOCKER&lt;/font&gt;" style="text;html=1;strokeColor=none;fillColor=none;align=center;verticalAlign=middle;whiteSpace=wrap;rounded=0;" vertex="1" parent="1">
          <mxGeometry x="2260" y="780" width="650" height="60" as="geometry" />
        </mxCell>
        <mxCell id="2ZFmd8-YQH3pPk2A6SJL-101" value="&lt;font style=&quot;font-size: 55px;&quot;&gt;Kubelet&lt;/font&gt;" style="text;html=1;strokeColor=none;fillColor=none;align=center;verticalAlign=middle;whiteSpace=wrap;rounded=0;strokeWidth=1;" vertex="1" parent="1">
          <mxGeometry x="2210" y="890" width="270" height="60" as="geometry" />
        </mxCell>
        <mxCell id="2ZFmd8-YQH3pPk2A6SJL-102" value="&lt;font style=&quot;font-size: 52px;&quot;&gt;Kube proxy&lt;/font&gt;" style="text;html=1;strokeColor=none;fillColor=none;align=center;verticalAlign=middle;whiteSpace=wrap;rounded=0;" vertex="1" parent="1">
          <mxGeometry x="2670" y="890" width="270" height="60" as="geometry" />
        </mxCell>
        <mxCell id="2ZFmd8-YQH3pPk2A6SJL-103" value="&lt;font style=&quot;font-size: 25px;&quot;&gt;POD&lt;/font&gt;" style="text;html=1;strokeColor=none;fillColor=none;align=center;verticalAlign=middle;whiteSpace=wrap;rounded=0;" vertex="1" parent="1">
          <mxGeometry x="2311" y="690" width="60" height="30" as="geometry" />
        </mxCell>
        <mxCell id="2ZFmd8-YQH3pPk2A6SJL-104" value="&lt;font style=&quot;font-size: 25px;&quot;&gt;POD&lt;/font&gt;" style="text;html=1;strokeColor=none;fillColor=none;align=center;verticalAlign=middle;whiteSpace=wrap;rounded=0;" vertex="1" parent="1">
          <mxGeometry x="2820" y="690" width="60" height="30" as="geometry" />
        </mxCell>
        <mxCell id="2ZFmd8-YQH3pPk2A6SJL-106" value="&lt;font style=&quot;font-size: 22px;&quot;&gt;Container&lt;/font&gt;" style="text;html=1;strokeColor=none;fillColor=none;align=center;verticalAlign=middle;whiteSpace=wrap;rounded=0;" vertex="1" parent="1">
          <mxGeometry x="2201" y="450" width="140" height="30" as="geometry" />
        </mxCell>
        <mxCell id="2ZFmd8-YQH3pPk2A6SJL-107" value="&lt;font style=&quot;font-size: 22px;&quot;&gt;Container&lt;/font&gt;" style="text;html=1;strokeColor=none;fillColor=none;align=center;verticalAlign=middle;whiteSpace=wrap;rounded=0;" vertex="1" parent="1">
          <mxGeometry x="2400" y="580" width="120" height="30" as="geometry" />
        </mxCell>
        <mxCell id="2ZFmd8-YQH3pPk2A6SJL-108" value="&lt;font style=&quot;font-size: 22px;&quot;&gt;Container&lt;/font&gt;" style="text;html=1;strokeColor=none;fillColor=none;align=center;verticalAlign=middle;whiteSpace=wrap;rounded=0;" vertex="1" parent="1">
          <mxGeometry x="2694.5" y="450" width="120" height="30" as="geometry" />
        </mxCell>
        <mxCell id="2ZFmd8-YQH3pPk2A6SJL-109" value="&lt;font style=&quot;font-size: 22px;&quot;&gt;Container&lt;/font&gt;" style="text;html=1;strokeColor=none;fillColor=none;align=center;verticalAlign=middle;whiteSpace=wrap;rounded=0;" vertex="1" parent="1">
          <mxGeometry x="2870" y="450" width="120" height="30" as="geometry" />
        </mxCell>
        <mxCell id="2ZFmd8-YQH3pPk2A6SJL-110" value="" style="rounded=0;whiteSpace=wrap;html=1;fillColor=none;strokeWidth=10;" vertex="1" parent="1">
          <mxGeometry x="2080" y="1120" width="1040" height="650" as="geometry" />
        </mxCell>
        <mxCell id="2ZFmd8-YQH3pPk2A6SJL-111" value="" style="rounded=0;whiteSpace=wrap;html=1;fillColor=none;strokeWidth=9;strokeColor=#3399FF;" vertex="1" parent="1">
          <mxGeometry x="2160" y="1620" width="430" height="80" as="geometry" />
        </mxCell>
        <mxCell id="2ZFmd8-YQH3pPk2A6SJL-112" value="" style="rounded=0;whiteSpace=wrap;html=1;fillColor=none;strokeWidth=9;strokeColor=#3399FF;" vertex="1" parent="1">
          <mxGeometry x="2160" y="1510" width="880" height="80" as="geometry" />
        </mxCell>
        <mxCell id="2ZFmd8-YQH3pPk2A6SJL-113" value="" style="rounded=0;whiteSpace=wrap;html=1;fillColor=none;strokeWidth=9;strokeColor=#3399FF;" vertex="1" parent="1">
          <mxGeometry x="2610" y="1620" width="430" height="80" as="geometry" />
        </mxCell>
        <mxCell id="2ZFmd8-YQH3pPk2A6SJL-114" value="" style="rounded=1;whiteSpace=wrap;html=1;fillColor=none;strokeWidth=5;strokeColor=#D5E8D4;" vertex="1" parent="1">
          <mxGeometry x="2160" y="1180" width="400" height="280" as="geometry" />
        </mxCell>
        <mxCell id="2ZFmd8-YQH3pPk2A6SJL-115" value="" style="rounded=1;whiteSpace=wrap;html=1;fillColor=none;strokeWidth=5;strokeColor=#D5E8D4;" vertex="1" parent="1">
          <mxGeometry x="2635" y="1180" width="400" height="280" as="geometry" />
        </mxCell>
        <mxCell id="2ZFmd8-YQH3pPk2A6SJL-116" value="" style="sketch=0;html=1;dashed=0;whitespace=wrap;fillColor=#2875E2;strokeColor=#ffffff;points=[[0.005,0.63,0],[0.1,0.2,0],[0.9,0.2,0],[0.5,0,0],[0.995,0.63,0],[0.72,0.99,0],[0.5,1,0],[0.28,0.99,0]];verticalLabelPosition=bottom;align=center;verticalAlign=top;shape=mxgraph.kubernetes.icon;prIcon=k_proxy" vertex="1" parent="1">
          <mxGeometry x="2955" y="1616" width="80" height="88" as="geometry" />
        </mxCell>
        <mxCell id="2ZFmd8-YQH3pPk2A6SJL-117" value="" style="sketch=0;html=1;dashed=0;whitespace=wrap;fillColor=#2875E2;strokeColor=#ffffff;points=[[0.005,0.63,0],[0.1,0.2,0],[0.9,0.2,0],[0.5,0,0],[0.995,0.63,0],[0.72,0.99,0],[0.5,1,0],[0.28,0.99,0]];verticalLabelPosition=bottom;align=center;verticalAlign=top;shape=mxgraph.kubernetes.icon;prIcon=kubelet" vertex="1" parent="1">
          <mxGeometry x="2500" y="1620" width="80" height="80" as="geometry" />
        </mxCell>
        <mxCell id="2ZFmd8-YQH3pPk2A6SJL-118" value="" style="image;sketch=0;aspect=fixed;html=1;points=[];align=center;fontSize=12;image=img/lib/mscae/Docker.svg;" vertex="1" parent="1">
          <mxGeometry x="2790" y="1510" width="97.56" height="80" as="geometry" />
        </mxCell>
        <mxCell id="2ZFmd8-YQH3pPk2A6SJL-120" value="" style="shape=cube;whiteSpace=wrap;html=1;boundedLbl=1;backgroundOutline=1;darkOpacity=0.05;darkOpacity2=0.1;fillColor=none;strokeWidth=3;strokeColor=#E5CCFF;" vertex="1" parent="1">
          <mxGeometry x="2210" y="1220" width="190" height="120" as="geometry" />
        </mxCell>
        <mxCell id="2ZFmd8-YQH3pPk2A6SJL-121" value="" style="shape=cube;whiteSpace=wrap;html=1;boundedLbl=1;backgroundOutline=1;darkOpacity=0.05;darkOpacity2=0.1;fillColor=none;strokeWidth=3;strokeColor=#E5CCFF;" vertex="1" parent="1">
          <mxGeometry x="2380" y="1350" width="149" height="90" as="geometry" />
        </mxCell>
        <mxCell id="2ZFmd8-YQH3pPk2A6SJL-122" value="" style="shape=cube;whiteSpace=wrap;html=1;boundedLbl=1;backgroundOutline=1;darkOpacity=0.05;darkOpacity2=0.1;fillColor=none;strokeWidth=3;strokeColor=#E5CCFF;" vertex="1" parent="1">
          <mxGeometry x="2680" y="1220" width="149" height="90" as="geometry" />
        </mxCell>
        <mxCell id="2ZFmd8-YQH3pPk2A6SJL-123" value="" style="shape=cube;whiteSpace=wrap;html=1;boundedLbl=1;backgroundOutline=1;darkOpacity=0.05;darkOpacity2=0.1;fillColor=none;strokeWidth=3;strokeColor=#E5CCFF;" vertex="1" parent="1">
          <mxGeometry x="2680" y="1340" width="149" height="90" as="geometry" />
        </mxCell>
        <mxCell id="2ZFmd8-YQH3pPk2A6SJL-124" value="" style="shape=cube;whiteSpace=wrap;html=1;boundedLbl=1;backgroundOutline=1;darkOpacity=0.05;darkOpacity2=0.1;fillColor=none;strokeWidth=3;strokeColor=#E5CCFF;" vertex="1" parent="1">
          <mxGeometry x="2860" y="1220" width="149" height="90" as="geometry" />
        </mxCell>
        <mxCell id="2ZFmd8-YQH3pPk2A6SJL-125" value="" style="shape=cube;whiteSpace=wrap;html=1;boundedLbl=1;backgroundOutline=1;darkOpacity=0.05;darkOpacity2=0.1;fillColor=none;strokeWidth=3;strokeColor=#E5CCFF;" vertex="1" parent="1">
          <mxGeometry x="2860" y="1340" width="149" height="90" as="geometry" />
        </mxCell>
        <mxCell id="2ZFmd8-YQH3pPk2A6SJL-126" value="&lt;font color=&quot;#007fff&quot; style=&quot;font-size: 58px;&quot;&gt;DOCKER&lt;/font&gt;" style="text;html=1;strokeColor=none;fillColor=none;align=center;verticalAlign=middle;whiteSpace=wrap;rounded=0;" vertex="1" parent="1">
          <mxGeometry x="2260" y="1520" width="650" height="60" as="geometry" />
        </mxCell>
        <mxCell id="2ZFmd8-YQH3pPk2A6SJL-127" value="&lt;font style=&quot;font-size: 55px;&quot;&gt;Kubelet&lt;/font&gt;" style="text;html=1;strokeColor=none;fillColor=none;align=center;verticalAlign=middle;whiteSpace=wrap;rounded=0;" vertex="1" parent="1">
          <mxGeometry x="2210" y="1630" width="270" height="60" as="geometry" />
        </mxCell>
        <mxCell id="2ZFmd8-YQH3pPk2A6SJL-128" value="&lt;font style=&quot;font-size: 52px;&quot;&gt;Kube proxy&lt;/font&gt;" style="text;html=1;strokeColor=none;fillColor=none;align=center;verticalAlign=middle;whiteSpace=wrap;rounded=0;" vertex="1" parent="1">
          <mxGeometry x="2670" y="1630" width="270" height="60" as="geometry" />
        </mxCell>
        <mxCell id="2ZFmd8-YQH3pPk2A6SJL-129" value="&lt;font style=&quot;font-size: 25px;&quot;&gt;POD&lt;/font&gt;" style="text;html=1;strokeColor=none;fillColor=none;align=center;verticalAlign=middle;whiteSpace=wrap;rounded=0;" vertex="1" parent="1">
          <mxGeometry x="2311" y="1430" width="60" height="30" as="geometry" />
        </mxCell>
        <mxCell id="2ZFmd8-YQH3pPk2A6SJL-130" value="&lt;font style=&quot;font-size: 25px;&quot;&gt;POD&lt;/font&gt;" style="text;html=1;strokeColor=none;fillColor=none;align=center;verticalAlign=middle;whiteSpace=wrap;rounded=0;" vertex="1" parent="1">
          <mxGeometry x="2820" y="1430" width="60" height="30" as="geometry" />
        </mxCell>
        <mxCell id="2ZFmd8-YQH3pPk2A6SJL-131" value="&lt;font style=&quot;font-size: 22px;&quot;&gt;Container&lt;/font&gt;" style="text;html=1;strokeColor=none;fillColor=none;align=center;verticalAlign=middle;whiteSpace=wrap;rounded=0;" vertex="1" parent="1">
          <mxGeometry x="2201" y="1190" width="140" height="30" as="geometry" />
        </mxCell>
        <mxCell id="2ZFmd8-YQH3pPk2A6SJL-132" value="&lt;font style=&quot;font-size: 22px;&quot;&gt;Container&lt;/font&gt;" style="text;html=1;strokeColor=none;fillColor=none;align=center;verticalAlign=middle;whiteSpace=wrap;rounded=0;" vertex="1" parent="1">
          <mxGeometry x="2400" y="1320" width="120" height="30" as="geometry" />
        </mxCell>
        <mxCell id="2ZFmd8-YQH3pPk2A6SJL-133" value="&lt;font style=&quot;font-size: 22px;&quot;&gt;Container&lt;/font&gt;" style="text;html=1;strokeColor=none;fillColor=none;align=center;verticalAlign=middle;whiteSpace=wrap;rounded=0;" vertex="1" parent="1">
          <mxGeometry x="2694.5" y="1190" width="120" height="30" as="geometry" />
        </mxCell>
        <mxCell id="2ZFmd8-YQH3pPk2A6SJL-134" value="&lt;font style=&quot;font-size: 22px;&quot;&gt;Container&lt;/font&gt;" style="text;html=1;strokeColor=none;fillColor=none;align=center;verticalAlign=middle;whiteSpace=wrap;rounded=0;" vertex="1" parent="1">
          <mxGeometry x="2870" y="1190" width="120" height="30" as="geometry" />
        </mxCell>
        <mxCell id="2ZFmd8-YQH3pPk2A6SJL-135" value="" style="rounded=0;whiteSpace=wrap;html=1;fillColor=none;strokeWidth=10;" vertex="1" parent="1">
          <mxGeometry x="2080" y="1840" width="1040" height="630" as="geometry" />
        </mxCell>
        <mxCell id="2ZFmd8-YQH3pPk2A6SJL-136" value="" style="rounded=0;whiteSpace=wrap;html=1;fillColor=none;strokeWidth=9;strokeColor=#3399FF;" vertex="1" parent="1">
          <mxGeometry x="2160" y="2320" width="430" height="80" as="geometry" />
        </mxCell>
        <mxCell id="2ZFmd8-YQH3pPk2A6SJL-137" value="" style="rounded=0;whiteSpace=wrap;html=1;fillColor=none;strokeWidth=9;strokeColor=#3399FF;" vertex="1" parent="1">
          <mxGeometry x="2160" y="2210" width="880" height="80" as="geometry" />
        </mxCell>
        <mxCell id="2ZFmd8-YQH3pPk2A6SJL-138" value="" style="rounded=0;whiteSpace=wrap;html=1;fillColor=none;strokeWidth=9;strokeColor=#3399FF;" vertex="1" parent="1">
          <mxGeometry x="2610" y="2320" width="430" height="80" as="geometry" />
        </mxCell>
        <mxCell id="2ZFmd8-YQH3pPk2A6SJL-139" value="" style="rounded=1;whiteSpace=wrap;html=1;fillColor=none;strokeWidth=5;strokeColor=#D5E8D4;" vertex="1" parent="1">
          <mxGeometry x="2160" y="1880" width="400" height="280" as="geometry" />
        </mxCell>
        <mxCell id="2ZFmd8-YQH3pPk2A6SJL-140" value="" style="rounded=1;whiteSpace=wrap;html=1;fillColor=none;strokeWidth=5;strokeColor=#D5E8D4;" vertex="1" parent="1">
          <mxGeometry x="2635" y="1880" width="400" height="280" as="geometry" />
        </mxCell>
        <mxCell id="2ZFmd8-YQH3pPk2A6SJL-141" value="" style="sketch=0;html=1;dashed=0;whitespace=wrap;fillColor=#2875E2;strokeColor=#ffffff;points=[[0.005,0.63,0],[0.1,0.2,0],[0.9,0.2,0],[0.5,0,0],[0.995,0.63,0],[0.72,0.99,0],[0.5,1,0],[0.28,0.99,0]];verticalLabelPosition=bottom;align=center;verticalAlign=top;shape=mxgraph.kubernetes.icon;prIcon=k_proxy" vertex="1" parent="1">
          <mxGeometry x="2955" y="2316" width="80" height="88" as="geometry" />
        </mxCell>
        <mxCell id="2ZFmd8-YQH3pPk2A6SJL-142" value="" style="sketch=0;html=1;dashed=0;whitespace=wrap;fillColor=#2875E2;strokeColor=#ffffff;points=[[0.005,0.63,0],[0.1,0.2,0],[0.9,0.2,0],[0.5,0,0],[0.995,0.63,0],[0.72,0.99,0],[0.5,1,0],[0.28,0.99,0]];verticalLabelPosition=bottom;align=center;verticalAlign=top;shape=mxgraph.kubernetes.icon;prIcon=kubelet" vertex="1" parent="1">
          <mxGeometry x="2500" y="2320" width="80" height="80" as="geometry" />
        </mxCell>
        <mxCell id="2ZFmd8-YQH3pPk2A6SJL-143" value="" style="image;sketch=0;aspect=fixed;html=1;points=[];align=center;fontSize=12;image=img/lib/mscae/Docker.svg;" vertex="1" parent="1">
          <mxGeometry x="2790" y="2210" width="97.56" height="80" as="geometry" />
        </mxCell>
        <mxCell id="2ZFmd8-YQH3pPk2A6SJL-145" value="" style="shape=cube;whiteSpace=wrap;html=1;boundedLbl=1;backgroundOutline=1;darkOpacity=0.05;darkOpacity2=0.1;fillColor=none;strokeWidth=3;strokeColor=#E5CCFF;" vertex="1" parent="1">
          <mxGeometry x="2210" y="1920" width="190" height="120" as="geometry" />
        </mxCell>
        <mxCell id="2ZFmd8-YQH3pPk2A6SJL-146" value="" style="shape=cube;whiteSpace=wrap;html=1;boundedLbl=1;backgroundOutline=1;darkOpacity=0.05;darkOpacity2=0.1;fillColor=none;strokeWidth=3;strokeColor=#E5CCFF;" vertex="1" parent="1">
          <mxGeometry x="2380" y="2050" width="149" height="90" as="geometry" />
        </mxCell>
        <mxCell id="2ZFmd8-YQH3pPk2A6SJL-147" value="" style="shape=cube;whiteSpace=wrap;html=1;boundedLbl=1;backgroundOutline=1;darkOpacity=0.05;darkOpacity2=0.1;fillColor=none;strokeWidth=3;strokeColor=#E5CCFF;" vertex="1" parent="1">
          <mxGeometry x="2680" y="1920" width="149" height="90" as="geometry" />
        </mxCell>
        <mxCell id="2ZFmd8-YQH3pPk2A6SJL-148" value="" style="shape=cube;whiteSpace=wrap;html=1;boundedLbl=1;backgroundOutline=1;darkOpacity=0.05;darkOpacity2=0.1;fillColor=none;strokeWidth=3;strokeColor=#E5CCFF;" vertex="1" parent="1">
          <mxGeometry x="2680" y="2040" width="149" height="90" as="geometry" />
        </mxCell>
        <mxCell id="2ZFmd8-YQH3pPk2A6SJL-149" value="" style="shape=cube;whiteSpace=wrap;html=1;boundedLbl=1;backgroundOutline=1;darkOpacity=0.05;darkOpacity2=0.1;fillColor=none;strokeWidth=3;strokeColor=#E5CCFF;" vertex="1" parent="1">
          <mxGeometry x="2860" y="1920" width="149" height="90" as="geometry" />
        </mxCell>
        <mxCell id="2ZFmd8-YQH3pPk2A6SJL-150" value="" style="shape=cube;whiteSpace=wrap;html=1;boundedLbl=1;backgroundOutline=1;darkOpacity=0.05;darkOpacity2=0.1;fillColor=none;strokeWidth=3;strokeColor=#E5CCFF;" vertex="1" parent="1">
          <mxGeometry x="2860" y="2040" width="149" height="90" as="geometry" />
        </mxCell>
        <mxCell id="2ZFmd8-YQH3pPk2A6SJL-151" value="&lt;font color=&quot;#007fff&quot; style=&quot;font-size: 58px;&quot;&gt;DOCKER&lt;/font&gt;" style="text;html=1;strokeColor=none;fillColor=none;align=center;verticalAlign=middle;whiteSpace=wrap;rounded=0;" vertex="1" parent="1">
          <mxGeometry x="2260" y="2220" width="650" height="60" as="geometry" />
        </mxCell>
        <mxCell id="2ZFmd8-YQH3pPk2A6SJL-152" value="&lt;font style=&quot;font-size: 55px;&quot;&gt;Kubelet&lt;/font&gt;" style="text;html=1;strokeColor=none;fillColor=none;align=center;verticalAlign=middle;whiteSpace=wrap;rounded=0;" vertex="1" parent="1">
          <mxGeometry x="2210" y="2330" width="270" height="60" as="geometry" />
        </mxCell>
        <mxCell id="2ZFmd8-YQH3pPk2A6SJL-153" value="&lt;font style=&quot;font-size: 52px;&quot;&gt;Kube proxy&lt;/font&gt;" style="text;html=1;strokeColor=none;fillColor=none;align=center;verticalAlign=middle;whiteSpace=wrap;rounded=0;" vertex="1" parent="1">
          <mxGeometry x="2670" y="2330" width="270" height="60" as="geometry" />
        </mxCell>
        <mxCell id="2ZFmd8-YQH3pPk2A6SJL-154" value="&lt;font style=&quot;font-size: 25px;&quot;&gt;POD&lt;/font&gt;" style="text;html=1;strokeColor=none;fillColor=none;align=center;verticalAlign=middle;whiteSpace=wrap;rounded=0;" vertex="1" parent="1">
          <mxGeometry x="2311" y="2130" width="60" height="30" as="geometry" />
        </mxCell>
        <mxCell id="2ZFmd8-YQH3pPk2A6SJL-155" value="&lt;font style=&quot;font-size: 25px;&quot;&gt;POD&lt;/font&gt;" style="text;html=1;strokeColor=none;fillColor=none;align=center;verticalAlign=middle;whiteSpace=wrap;rounded=0;" vertex="1" parent="1">
          <mxGeometry x="2820" y="2130" width="60" height="30" as="geometry" />
        </mxCell>
        <mxCell id="2ZFmd8-YQH3pPk2A6SJL-156" value="&lt;font style=&quot;font-size: 22px;&quot;&gt;Container&lt;/font&gt;" style="text;html=1;strokeColor=none;fillColor=none;align=center;verticalAlign=middle;whiteSpace=wrap;rounded=0;" vertex="1" parent="1">
          <mxGeometry x="2201" y="1890" width="140" height="30" as="geometry" />
        </mxCell>
        <mxCell id="2ZFmd8-YQH3pPk2A6SJL-157" value="&lt;font style=&quot;font-size: 22px;&quot;&gt;Container&lt;/font&gt;" style="text;html=1;strokeColor=none;fillColor=none;align=center;verticalAlign=middle;whiteSpace=wrap;rounded=0;" vertex="1" parent="1">
          <mxGeometry x="2400" y="2020" width="120" height="30" as="geometry" />
        </mxCell>
        <mxCell id="2ZFmd8-YQH3pPk2A6SJL-158" value="&lt;font style=&quot;font-size: 22px;&quot;&gt;Container&lt;/font&gt;" style="text;html=1;strokeColor=none;fillColor=none;align=center;verticalAlign=middle;whiteSpace=wrap;rounded=0;" vertex="1" parent="1">
          <mxGeometry x="2694.5" y="1890" width="120" height="30" as="geometry" />
        </mxCell>
        <mxCell id="2ZFmd8-YQH3pPk2A6SJL-159" value="&lt;font style=&quot;font-size: 22px;&quot;&gt;Container&lt;/font&gt;" style="text;html=1;strokeColor=none;fillColor=none;align=center;verticalAlign=middle;whiteSpace=wrap;rounded=0;" vertex="1" parent="1">
          <mxGeometry x="2870" y="1890" width="120" height="30" as="geometry" />
        </mxCell>
        <mxCell id="2ZFmd8-YQH3pPk2A6SJL-161" value="" style="image;sketch=0;aspect=fixed;html=1;points=[];align=center;fontSize=12;image=img/lib/mscae/Kubernetes.svg;" vertex="1" parent="1">
          <mxGeometry x="2925" y="2554.4" width="110" height="105.6" as="geometry" />
        </mxCell>
        <mxCell id="2ZFmd8-YQH3pPk2A6SJL-164" value="" style="image;html=1;image=img/lib/clip_art/computers/MacBook_128x128.png" vertex="1" parent="1">
          <mxGeometry x="385" y="705" width="410" height="280" as="geometry" />
        </mxCell>
        <mxCell id="2ZFmd8-YQH3pPk2A6SJL-167" value="&lt;font style=&quot;font-size: 37px;&quot;&gt;LOCAL MACHINE&lt;/font&gt;" style="text;html=1;strokeColor=none;fillColor=none;align=center;verticalAlign=middle;whiteSpace=wrap;rounded=0;" vertex="1" parent="1">
          <mxGeometry x="525" y="1040" width="400" height="60" as="geometry" />
        </mxCell>
        <mxCell id="2ZFmd8-YQH3pPk2A6SJL-168" value="" style="sketch=0;aspect=fixed;pointerEvents=1;shadow=0;dashed=0;html=1;strokeColor=#1695d4;labelPosition=center;verticalLabelPosition=bottom;verticalAlign=top;align=center;fillColor=none;shape=mxgraph.mscae.enterprise.internet;strokeWidth=10;" vertex="1" parent="1">
          <mxGeometry x="995.64" y="1790.7" width="368.71" height="228.6" as="geometry" />
        </mxCell>
        <mxCell id="2ZFmd8-YQH3pPk2A6SJL-169" value="" style="sketch=0;aspect=fixed;pointerEvents=1;shadow=0;dashed=0;html=1;strokeColor=#36393d;labelPosition=center;verticalLabelPosition=bottom;verticalAlign=top;align=center;fillColor=#eeeeee;shape=mxgraph.azure.file" vertex="1" parent="1">
          <mxGeometry x="835" y="705" width="197.4" height="210" as="geometry" />
        </mxCell>
        <mxCell id="2ZFmd8-YQH3pPk2A6SJL-170" value="&lt;font style=&quot;font-size: 34px;&quot;&gt;CONFIG&lt;/font&gt;" style="text;html=1;strokeColor=none;fillColor=none;align=center;verticalAlign=middle;whiteSpace=wrap;rounded=0;" vertex="1" parent="1">
          <mxGeometry x="845" y="930" width="170" height="70" as="geometry" />
        </mxCell>
        <mxCell id="2ZFmd8-YQH3pPk2A6SJL-172" value="&lt;font style=&quot;font-size: 54px;&quot;&gt;KUBERNETES CLUSTER&lt;/font&gt;" style="text;html=1;strokeColor=none;fillColor=none;align=center;verticalAlign=middle;whiteSpace=wrap;rounded=0;" vertex="1" parent="1">
          <mxGeometry x="2100" y="2570" width="920" height="90" as="geometry" />
        </mxCell>
        <mxCell id="2ZFmd8-YQH3pPk2A6SJL-173" value="&lt;b style=&quot;font-size: 35px;&quot;&gt;NODE 1&lt;/b&gt;" style="text;html=1;strokeColor=none;fillColor=none;align=center;verticalAlign=middle;whiteSpace=wrap;rounded=0;" vertex="1" parent="1">
          <mxGeometry x="2870" y="985" width="340" height="35" as="geometry" />
        </mxCell>
        <mxCell id="2ZFmd8-YQH3pPk2A6SJL-174" value="&lt;b style=&quot;font-size: 35px;&quot;&gt;NODE 2&lt;/b&gt;" style="text;html=1;strokeColor=none;fillColor=none;align=center;verticalAlign=middle;whiteSpace=wrap;rounded=0;" vertex="1" parent="1">
          <mxGeometry x="2870" y="1710" width="340" height="35" as="geometry" />
        </mxCell>
        <mxCell id="2ZFmd8-YQH3pPk2A6SJL-175" value="&lt;b style=&quot;font-size: 35px;&quot;&gt;NODE 3&lt;/b&gt;" style="text;html=1;strokeColor=none;fillColor=none;align=center;verticalAlign=middle;whiteSpace=wrap;rounded=0;" vertex="1" parent="1">
          <mxGeometry x="2870" y="2420" width="340" height="35" as="geometry" />
        </mxCell>
        <mxCell id="2ZFmd8-YQH3pPk2A6SJL-177" value="&lt;font style=&quot;font-size: 45px;&quot;&gt;Kubectl&lt;/font&gt;" style="text;html=1;strokeColor=none;fillColor=none;align=center;verticalAlign=middle;whiteSpace=wrap;rounded=0;" vertex="1" parent="1">
          <mxGeometry x="1140" y="790" width="280" height="70" as="geometry" />
        </mxCell>
        <mxCell id="2ZFmd8-YQH3pPk2A6SJL-179" value="&lt;font color=&quot;#ffffff&quot; style=&quot;font-size: 33px;&quot;&gt;HTTP REQUEST&amp;nbsp;&lt;/font&gt;" style="text;html=1;strokeColor=none;fillColor=none;align=center;verticalAlign=middle;whiteSpace=wrap;rounded=0;" vertex="1" parent="1">
          <mxGeometry x="979.9899999999999" y="1920" width="400" height="60" as="geometry" />
        </mxCell>
        <mxCell id="2ZFmd8-YQH3pPk2A6SJL-182" value="" style="sketch=0;aspect=fixed;pointerEvents=1;shadow=0;dashed=0;html=1;strokeColor=#36393d;labelPosition=center;verticalLabelPosition=bottom;verticalAlign=top;align=center;fillColor=#eeeeee;shape=mxgraph.mscae.enterprise.workstation_client" vertex="1" parent="1">
          <mxGeometry x="465" y="1880" width="300" height="300" as="geometry" />
        </mxCell>
        <mxCell id="2ZFmd8-YQH3pPk2A6SJL-186" value="&lt;font style=&quot;font-size: 36px;&quot;&gt;CLIENTS&lt;/font&gt;" style="text;html=1;strokeColor=none;fillColor=none;align=center;verticalAlign=middle;whiteSpace=wrap;rounded=0;" vertex="1" parent="1">
          <mxGeometry x="405" y="2190" width="420" height="75" as="geometry" />
        </mxCell>
        <mxCell id="2ZFmd8-YQH3pPk2A6SJL-187" value="&lt;font style=&quot;font-size: 19px;&quot;&gt;Blog WebSite&lt;/font&gt;" style="text;html=1;strokeColor=none;fillColor=none;align=center;verticalAlign=middle;whiteSpace=wrap;rounded=0;" vertex="1" parent="1">
          <mxGeometry x="2260" y="520" width="110" height="50" as="geometry" />
        </mxCell>
        <mxCell id="2ZFmd8-YQH3pPk2A6SJL-224" style="edgeStyle=orthogonalEdgeStyle;rounded=0;orthogonalLoop=1;jettySize=auto;html=1;strokeWidth=4;strokeColor=#FF3333;" edge="1" parent="1" source="2ZFmd8-YQH3pPk2A6SJL-192" target="2ZFmd8-YQH3pPk2A6SJL-77">
          <mxGeometry relative="1" as="geometry">
            <Array as="points">
              <mxPoint x="1800" y="920" />
              <mxPoint x="1800" y="725" />
            </Array>
          </mxGeometry>
        </mxCell>
        <mxCell id="2ZFmd8-YQH3pPk2A6SJL-227" style="edgeStyle=orthogonalEdgeStyle;rounded=0;orthogonalLoop=1;jettySize=auto;html=1;strokeWidth=4;strokeColor=#FF3333;" edge="1" parent="1" source="2ZFmd8-YQH3pPk2A6SJL-192" target="2ZFmd8-YQH3pPk2A6SJL-110">
          <mxGeometry relative="1" as="geometry">
            <Array as="points">
              <mxPoint x="1800" y="980" />
              <mxPoint x="1800" y="1445" />
            </Array>
          </mxGeometry>
        </mxCell>
        <mxCell id="2ZFmd8-YQH3pPk2A6SJL-228" style="edgeStyle=orthogonalEdgeStyle;rounded=0;orthogonalLoop=1;jettySize=auto;html=1;strokeWidth=4;strokeColor=#FF3333;" edge="1" parent="1" source="2ZFmd8-YQH3pPk2A6SJL-192" target="2ZFmd8-YQH3pPk2A6SJL-135">
          <mxGeometry relative="1" as="geometry">
            <mxPoint x="2050" y="2150" as="targetPoint" />
            <Array as="points">
              <mxPoint x="1810" y="1510" />
              <mxPoint x="1810" y="2150" />
            </Array>
          </mxGeometry>
        </mxCell>
        <mxCell id="2ZFmd8-YQH3pPk2A6SJL-192" value="" style="rounded=0;whiteSpace=wrap;html=1;fillColor=none;strokeWidth=10;" vertex="1" parent="1">
          <mxGeometry x="1530" y="410" width="237.5" height="1220" as="geometry" />
        </mxCell>
        <mxCell id="2ZFmd8-YQH3pPk2A6SJL-195" value="" style="image;sketch=0;aspect=fixed;html=1;points=[];align=center;fontSize=12;image=img/lib/mscae/Kubernetes_Services.svg;strokeWidth=5;imageBackground=none;" vertex="1" parent="1">
          <mxGeometry x="1557.5" y="1981.17" width="172.5" height="127.66" as="geometry" />
        </mxCell>
        <mxCell id="2ZFmd8-YQH3pPk2A6SJL-198" value="&lt;font style=&quot;font-size: 37px;&quot;&gt;SERVICES&lt;/font&gt;" style="text;html=1;strokeColor=none;fillColor=none;align=center;verticalAlign=middle;whiteSpace=wrap;rounded=0;" vertex="1" parent="1">
          <mxGeometry x="1530" y="2150" width="227.5" height="130" as="geometry" />
        </mxCell>
        <mxCell id="2ZFmd8-YQH3pPk2A6SJL-200" value="&lt;font style=&quot;font-size: 33px;&quot;&gt;MASTER NODE&lt;/font&gt;" style="text;html=1;strokeColor=none;fillColor=none;align=center;verticalAlign=middle;whiteSpace=wrap;rounded=0;" vertex="1" parent="1">
          <mxGeometry x="1520" y="1540" width="200" height="90" as="geometry" />
        </mxCell>
        <mxCell id="2ZFmd8-YQH3pPk2A6SJL-201" value="&lt;font style=&quot;font-size: 21px;&quot;&gt;Video &lt;font style=&quot;font-size: 21px;&quot;&gt;Game &lt;/font&gt;Server&lt;br&gt;&lt;/font&gt;" style="text;html=1;strokeColor=none;fillColor=none;align=center;verticalAlign=middle;whiteSpace=wrap;rounded=0;" vertex="1" parent="1">
          <mxGeometry x="2281" y="1270" width="60" height="30" as="geometry" />
        </mxCell>
        <mxCell id="2ZFmd8-YQH3pPk2A6SJL-202" value="" style="sketch=0;html=1;dashed=0;whitespace=wrap;fillColor=#2875E2;strokeColor=#ffffff;points=[[0.005,0.63,0],[0.1,0.2,0],[0.9,0.2,0],[0.5,0,0],[0.995,0.63,0],[0.72,0.99,0],[0.5,1,0],[0.28,0.99,0]];verticalLabelPosition=bottom;align=center;verticalAlign=top;shape=mxgraph.kubernetes.icon;prIcon=api" vertex="1" parent="1">
          <mxGeometry x="1543.75" y="500" width="210" height="140" as="geometry" />
        </mxCell>
        <mxCell id="2ZFmd8-YQH3pPk2A6SJL-203" value="" style="sketch=0;html=1;dashed=0;whitespace=wrap;fillColor=#2875E2;strokeColor=#ffffff;points=[[0.005,0.63,0],[0.1,0.2,0],[0.9,0.2,0],[0.5,0,0],[0.995,0.63,0],[0.72,0.99,0],[0.5,1,0],[0.28,0.99,0]];verticalLabelPosition=bottom;align=center;verticalAlign=top;shape=mxgraph.kubernetes.icon;prIcon=etcd" vertex="1" parent="1">
          <mxGeometry x="1570" y="745" width="160" height="160" as="geometry" />
        </mxCell>
        <mxCell id="2ZFmd8-YQH3pPk2A6SJL-204" value="" style="sketch=0;html=1;dashed=0;whitespace=wrap;fillColor=#2875E2;strokeColor=#ffffff;points=[[0.005,0.63,0],[0.1,0.2,0],[0.9,0.2,0],[0.5,0,0],[0.995,0.63,0],[0.72,0.99,0],[0.5,1,0],[0.28,0.99,0]];verticalLabelPosition=bottom;align=center;verticalAlign=top;shape=mxgraph.kubernetes.icon;prIcon=node" vertex="1" parent="1">
          <mxGeometry x="2887.56" y="977.5" width="75" height="50" as="geometry" />
        </mxCell>
        <mxCell id="2ZFmd8-YQH3pPk2A6SJL-205" value="" style="sketch=0;html=1;dashed=0;whitespace=wrap;fillColor=#2875E2;strokeColor=#ffffff;points=[[0.005,0.63,0],[0.1,0.2,0],[0.9,0.2,0],[0.5,0,0],[0.995,0.63,0],[0.72,0.99,0],[0.5,1,0],[0.28,0.99,0]];verticalLabelPosition=bottom;align=center;verticalAlign=top;shape=mxgraph.kubernetes.icon;prIcon=node" vertex="1" parent="1">
          <mxGeometry x="2897" y="1704" width="75" height="50.75" as="geometry" />
        </mxCell>
        <mxCell id="2ZFmd8-YQH3pPk2A6SJL-206" value="" style="sketch=0;html=1;dashed=0;whitespace=wrap;fillColor=#2875E2;strokeColor=#ffffff;points=[[0.005,0.63,0],[0.1,0.2,0],[0.9,0.2,0],[0.5,0,0],[0.995,0.63,0],[0.72,0.99,0],[0.5,1,0],[0.28,0.99,0]];verticalLabelPosition=bottom;align=center;verticalAlign=top;shape=mxgraph.kubernetes.icon;prIcon=node" vertex="1" parent="1">
          <mxGeometry x="2892.5" y="2411.75" width="75" height="51.5" as="geometry" />
        </mxCell>
        <mxCell id="2ZFmd8-YQH3pPk2A6SJL-207" value="" style="sketch=0;html=1;dashed=0;whitespace=wrap;fillColor=#2875E2;strokeColor=#ffffff;points=[[0.005,0.63,0],[0.1,0.2,0],[0.9,0.2,0],[0.5,0,0],[0.995,0.63,0],[0.72,0.99,0],[0.5,1,0],[0.28,0.99,0]];verticalLabelPosition=bottom;align=center;verticalAlign=top;shape=mxgraph.kubernetes.icon;prIcon=master" vertex="1" parent="1">
          <mxGeometry x="1697.5" y="1572" width="50" height="48" as="geometry" />
        </mxCell>
        <mxCell id="2ZFmd8-YQH3pPk2A6SJL-208" value="&lt;font style=&quot;font-size: 24px;&quot;&gt;API Server&lt;/font&gt;" style="text;html=1;strokeColor=none;fillColor=none;align=center;verticalAlign=middle;whiteSpace=wrap;rounded=0;" vertex="1" parent="1">
          <mxGeometry x="1587.5" y="660" width="150" height="40" as="geometry" />
        </mxCell>
        <mxCell id="2ZFmd8-YQH3pPk2A6SJL-209" value="&lt;font style=&quot;font-size: 25px;&quot;&gt;ETCD&lt;/font&gt;" style="text;html=1;strokeColor=none;fillColor=none;align=center;verticalAlign=middle;whiteSpace=wrap;rounded=0;" vertex="1" parent="1">
          <mxGeometry x="1590" y="934" width="120" height="30" as="geometry" />
        </mxCell>
        <mxCell id="2ZFmd8-YQH3pPk2A6SJL-210" value="" style="sketch=0;html=1;dashed=0;whitespace=wrap;fillColor=#2875E2;strokeColor=#ffffff;points=[[0.005,0.63,0],[0.1,0.2,0],[0.9,0.2,0],[0.5,0,0],[0.995,0.63,0],[0.72,0.99,0],[0.5,1,0],[0.28,0.99,0]];verticalLabelPosition=bottom;align=center;verticalAlign=top;shape=mxgraph.kubernetes.icon;prIcon=sched" vertex="1" parent="1">
          <mxGeometry x="1580" y="1012" width="140" height="168" as="geometry" />
        </mxCell>
        <mxCell id="2ZFmd8-YQH3pPk2A6SJL-211" value="&lt;font style=&quot;font-size: 26px;&quot;&gt;Scheduler&amp;nbsp;&lt;/font&gt;" style="text;html=1;strokeColor=none;fillColor=none;align=center;verticalAlign=middle;whiteSpace=wrap;rounded=0;" vertex="1" parent="1">
          <mxGeometry x="1585" y="1200" width="140" height="40" as="geometry" />
        </mxCell>
        <mxCell id="2ZFmd8-YQH3pPk2A6SJL-215" value="" style="sketch=0;html=1;dashed=0;whitespace=wrap;fillColor=#2875E2;strokeColor=#ffffff;points=[[0.005,0.63,0],[0.1,0.2,0],[0.9,0.2,0],[0.5,0,0],[0.995,0.63,0],[0.72,0.99,0],[0.5,1,0],[0.28,0.99,0]];verticalLabelPosition=bottom;align=center;verticalAlign=top;shape=mxgraph.kubernetes.icon;prIcon=cm" vertex="1" parent="1">
          <mxGeometry x="1575" y="1280" width="150" height="170" as="geometry" />
        </mxCell>
        <mxCell id="2ZFmd8-YQH3pPk2A6SJL-216" value="&lt;font style=&quot;font-size: 21px;&quot;&gt;Control Manager&lt;/font&gt;" style="text;html=1;strokeColor=none;fillColor=none;align=center;verticalAlign=middle;whiteSpace=wrap;rounded=0;" vertex="1" parent="1">
          <mxGeometry x="1587.5" y="1450" width="160" height="50" as="geometry" />
        </mxCell>
        <mxCell id="2ZFmd8-YQH3pPk2A6SJL-217" value="&lt;font style=&quot;font-size: 23px;&quot;&gt;Fitness App&lt;/font&gt;" style="text;html=1;strokeColor=none;fillColor=none;align=center;verticalAlign=middle;whiteSpace=wrap;rounded=0;" vertex="1" parent="1">
          <mxGeometry x="2250" y="1950" width="120" height="80" as="geometry" />
        </mxCell>
        <mxCell id="2ZFmd8-YQH3pPk2A6SJL-218" value="&lt;font style=&quot;font-size: 23px;&quot;&gt;Fitness App&lt;/font&gt;" style="text;html=1;strokeColor=none;fillColor=none;align=center;verticalAlign=middle;whiteSpace=wrap;rounded=0;" vertex="1" parent="1">
          <mxGeometry x="2709" y="1230" width="120" height="80" as="geometry" />
        </mxCell>
        <mxCell id="2ZFmd8-YQH3pPk2A6SJL-219" value="&lt;font style=&quot;font-size: 21px;&quot;&gt;Video &lt;font style=&quot;font-size: 21px;&quot;&gt;Game &lt;/font&gt;Server&lt;br&gt;&lt;/font&gt;" style="text;html=1;strokeColor=none;fillColor=none;align=center;verticalAlign=middle;whiteSpace=wrap;rounded=0;" vertex="1" parent="1">
          <mxGeometry x="2730" y="1960" width="60" height="30" as="geometry" />
        </mxCell>
        <mxCell id="2ZFmd8-YQH3pPk2A6SJL-220" value="&lt;font style=&quot;font-size: 21px;&quot;&gt;Video &lt;font style=&quot;font-size: 21px;&quot;&gt;Game &lt;/font&gt;Server&lt;br&gt;&lt;/font&gt;" style="text;html=1;strokeColor=none;fillColor=none;align=center;verticalAlign=middle;whiteSpace=wrap;rounded=0;" vertex="1" parent="1">
          <mxGeometry x="2910" y="525" width="60" height="30" as="geometry" />
        </mxCell>
        <mxCell id="2ZFmd8-YQH3pPk2A6SJL-221" value="&lt;font style=&quot;font-size: 23px;&quot;&gt;Fitness App&lt;/font&gt;" style="text;html=1;strokeColor=none;fillColor=none;align=center;verticalAlign=middle;whiteSpace=wrap;rounded=0;" vertex="1" parent="1">
          <mxGeometry x="2709" y="605" width="120" height="80" as="geometry" />
        </mxCell>
        <mxCell id="2ZFmd8-YQH3pPk2A6SJL-222" value="&lt;font style=&quot;font-size: 19px;&quot;&gt;Blog WebSite&lt;/font&gt;" style="text;html=1;strokeColor=none;fillColor=none;align=center;verticalAlign=middle;whiteSpace=wrap;rounded=0;" vertex="1" parent="1">
          <mxGeometry x="2410" y="2080" width="110" height="50" as="geometry" />
        </mxCell>
        <mxCell id="2ZFmd8-YQH3pPk2A6SJL-223" value="&lt;font style=&quot;font-size: 19px;&quot;&gt;Blog WebSite&lt;/font&gt;" style="text;html=1;strokeColor=none;fillColor=none;align=center;verticalAlign=middle;whiteSpace=wrap;rounded=0;" vertex="1" parent="1">
          <mxGeometry x="2710" y="1370" width="110" height="50" as="geometry" />
        </mxCell>
        <mxCell id="2ZFmd8-YQH3pPk2A6SJL-237" style="edgeStyle=orthogonalEdgeStyle;rounded=0;orthogonalLoop=1;jettySize=auto;html=1;entryX=0;entryY=0.5;entryDx=0;entryDy=0;strokeWidth=7;fillColor=#e1d5e7;strokeColor=#9673a6;" edge="1" parent="1" target="2ZFmd8-YQH3pPk2A6SJL-136">
          <mxGeometry relative="1" as="geometry">
            <mxPoint x="1955" y="2360" as="sourcePoint" />
            <Array as="points">
              <mxPoint x="2010" y="2360" />
              <mxPoint x="2010" y="2360" />
            </Array>
          </mxGeometry>
        </mxCell>
        <mxCell id="2ZFmd8-YQH3pPk2A6SJL-238" style="edgeStyle=orthogonalEdgeStyle;rounded=0;orthogonalLoop=1;jettySize=auto;html=1;exitX=0;exitY=0.5;exitDx=0;exitDy=0;exitPerimeter=0;strokeWidth=7;fillColor=#e1d5e7;strokeColor=#9673a6;" edge="1" parent="1" source="2ZFmd8-YQH3pPk2A6SJL-234" target="2ZFmd8-YQH3pPk2A6SJL-78">
          <mxGeometry relative="1" as="geometry">
            <Array as="points">
              <mxPoint x="2010" y="920" />
              <mxPoint x="2010" y="920" />
            </Array>
          </mxGeometry>
        </mxCell>
        <mxCell id="2ZFmd8-YQH3pPk2A6SJL-239" style="edgeStyle=orthogonalEdgeStyle;rounded=0;orthogonalLoop=1;jettySize=auto;html=1;entryX=0;entryY=0.5;entryDx=0;entryDy=0;exitX=0.514;exitY=0.52;exitDx=0;exitDy=0;exitPerimeter=0;strokeWidth=7;fillColor=#e1d5e7;strokeColor=#9673a6;" edge="1" parent="1" source="2ZFmd8-YQH3pPk2A6SJL-234" target="2ZFmd8-YQH3pPk2A6SJL-111">
          <mxGeometry relative="1" as="geometry">
            <Array as="points" />
          </mxGeometry>
        </mxCell>
        <mxCell id="2ZFmd8-YQH3pPk2A6SJL-234" value="" style="line;strokeWidth=7;direction=south;html=1;fillColor=#e1d5e7;strokeColor=#9673a6;" vertex="1" parent="1">
          <mxGeometry x="1950" y="920" width="10" height="1440" as="geometry" />
        </mxCell>
      </root>
    </mxGraphModel>
  </diagram>
</mxfile>
